<svg width="803" height="378" viewBox="0 0 803 378" fill="none" xmlns="http://www.w3.org/2000/svg">
<path d="M605.88 153.128C605.88 155.904 605.38 158.405 604.38 160.63C603.38 162.855 601.947 164.755 600.081 166.328C598.226 167.89 595.973 169.093 593.32 169.936C590.668 170.768 587.678 171.184 584.352 171.184C582.239 171.184 580.249 171.009 578.384 170.661C576.529 170.324 574.821 169.835 573.258 169.194C571.696 168.542 570.297 167.75 569.061 166.817C567.836 165.873 566.796 164.811 565.942 163.631C565.088 162.451 564.43 161.153 563.969 159.736C563.52 158.32 563.295 156.814 563.295 155.218L563.295 154.83L577.372 154.83L577.372 155.134C577.372 155.527 577.451 155.915 577.608 156.297C577.777 156.668 578.007 157.011 578.299 157.326C578.591 157.64 578.94 157.932 579.345 158.202C579.76 158.461 580.221 158.686 580.727 158.877C581.233 159.056 581.778 159.197 582.362 159.298C582.947 159.399 583.559 159.45 584.2 159.45C585.279 159.45 586.268 159.304 587.167 159.011C588.066 158.719 588.836 158.309 589.477 157.781C590.129 157.253 590.629 156.623 590.977 155.893C591.337 155.151 591.517 154.336 591.517 153.448C591.517 152.875 591.444 152.341 591.297 151.846C591.151 151.341 590.938 150.88 590.657 150.464C590.376 150.037 590.033 149.66 589.628 149.334C589.224 148.997 588.763 148.711 588.246 148.475C587.729 148.239 587.161 148.059 586.543 147.935C585.925 147.812 585.256 147.75 584.537 147.75C584.009 147.75 583.492 147.789 582.986 147.868C582.48 147.935 581.991 148.036 581.519 148.171C581.058 148.306 580.62 148.475 580.204 148.677C579.8 148.868 579.423 149.087 579.075 149.334C578.738 149.571 578.434 149.835 578.164 150.127C577.906 150.408 577.687 150.711 577.507 151.037L563.683 151.037L563.683 121.973L602.694 121.973L602.694 133.538L577.507 133.538L577.507 147.817L577.473 147.8C577.687 146.856 578.001 145.974 578.417 145.154C578.844 144.333 579.356 143.58 579.951 142.894C580.547 142.209 581.233 141.596 582.008 141.057C582.795 140.506 583.655 140.045 584.588 139.674C585.532 139.292 586.554 139 587.656 138.798C588.757 138.595 589.932 138.494 591.179 138.494C592.753 138.494 594.208 138.652 595.546 138.966C596.895 139.281 598.108 139.736 599.187 140.332C600.278 140.916 601.238 141.636 602.07 142.49C602.902 143.344 603.599 144.316 604.161 145.406C604.734 146.485 605.161 147.677 605.442 148.98C605.734 150.273 605.88 151.655 605.88 153.128Z" fill="#9A77F3"/>
<path d="M558.91 170.189L518.432 170.189L518.432 162.198C518.432 160.175 518.679 158.393 519.173 156.853C519.668 155.314 520.331 153.965 521.163 152.807C521.994 151.65 522.955 150.655 524.046 149.823C525.147 148.992 526.305 148.272 527.519 147.665C528.744 147.058 529.98 146.541 531.227 146.114C532.486 145.676 533.694 145.277 534.852 144.917L536.201 144.479C537.044 144.22 537.853 143.962 538.628 143.703C539.415 143.445 540.151 143.175 540.837 142.894C541.534 142.602 542.163 142.287 542.725 141.95C543.298 141.613 543.793 141.231 544.209 140.804C544.625 140.377 544.945 139.905 545.17 139.388C545.394 138.859 545.507 138.264 545.507 137.601C545.507 136.87 545.355 136.201 545.052 135.594C544.748 134.976 544.316 134.454 543.754 134.027C543.192 133.599 542.506 133.268 541.697 133.032C540.888 132.785 539.977 132.661 538.966 132.661C537.831 132.661 536.836 132.818 535.982 133.133C535.139 133.436 534.436 133.897 533.874 134.515C533.324 135.122 532.908 135.892 532.627 136.825C532.346 137.747 532.205 138.831 532.205 140.079L532.205 141.073L518.651 141.073L518.651 139.961C518.651 137.039 519.134 134.409 520.101 132.071C521.078 129.722 522.467 127.727 524.265 126.086C526.074 124.434 528.266 123.169 530.84 122.293C533.414 121.405 536.308 120.961 539.522 120.961C542.557 120.961 545.282 121.354 547.699 122.141C550.126 122.928 552.177 124.057 553.852 125.53C555.538 127.002 556.825 128.783 557.713 130.874C558.612 132.964 559.061 135.319 559.061 137.938C559.061 139.95 558.808 141.709 558.303 143.215C557.797 144.721 557.117 146.024 556.263 147.126C555.42 148.227 554.442 149.16 553.329 149.924C552.228 150.689 551.07 151.335 549.856 151.863C548.654 152.38 547.434 152.813 546.198 153.161C544.973 153.51 543.821 153.819 542.742 154.088L540.449 154.679C539.775 154.847 539.101 155.021 538.426 155.201C537.752 155.381 537.106 155.583 536.487 155.808C535.869 156.033 535.29 156.286 534.751 156.567C534.223 156.848 533.762 157.174 533.369 157.545C532.975 157.915 532.666 158.337 532.441 158.809C532.217 159.27 532.104 159.804 532.104 160.411L532.104 161.962L530.115 158.758L558.91 158.758L558.91 170.189Z" fill="#9A77F3"/>
<path d="M561.406 93.0806C561.406 90.518 561.665 88.1241 562.182 85.8987C562.699 83.6621 563.435 81.6166 564.39 79.7621C565.357 77.8964 566.52 76.233 567.88 74.7719C569.251 73.3108 570.785 72.0801 572.482 71.0798C574.18 70.0683 576.023 69.2984 578.012 68.7702C580.013 68.2307 582.12 67.9609 584.334 67.9609C586.548 67.9609 588.65 68.2307 590.639 68.7702C592.64 69.2984 594.489 70.0683 596.186 71.0798C597.883 72.0801 599.412 73.3108 600.772 74.7719C602.143 76.233 603.306 77.8964 604.261 79.7621C605.228 81.6166 605.97 83.6621 606.487 85.8987C607.004 88.1241 607.262 90.518 607.262 93.0806C607.262 95.6431 607.004 98.0427 606.487 100.279C605.97 102.505 605.228 104.55 604.261 106.416C603.306 108.27 602.143 109.928 600.772 111.389C599.412 112.85 597.883 114.087 596.186 115.098C594.489 116.098 592.64 116.863 590.639 117.391C588.65 117.93 586.548 118.2 584.334 118.2C582.12 118.2 580.013 117.93 578.012 117.391C576.023 116.863 574.18 116.098 572.482 115.098C570.785 114.087 569.251 112.85 567.88 111.389C566.52 109.928 565.357 108.27 564.39 106.416C563.435 104.55 562.699 102.505 562.182 100.279C561.665 98.0427 561.406 95.6431 561.406 93.0806ZM575.77 93.0806C575.77 94.5866 575.849 95.9634 576.006 97.211C576.175 98.4473 576.422 99.5656 576.748 100.566C577.074 101.555 577.473 102.426 577.945 103.179C578.428 103.921 578.984 104.539 579.614 105.033C580.254 105.517 580.968 105.882 581.755 106.129C582.542 106.377 583.401 106.5 584.334 106.5C585.267 106.5 586.127 106.377 586.914 106.129C587.7 105.882 588.408 105.517 589.038 105.033C589.678 104.539 590.235 103.921 590.707 103.179C591.19 102.426 591.595 101.555 591.921 100.566C592.247 99.5656 592.488 98.4473 592.646 97.211C592.814 95.9634 592.899 94.5866 592.899 93.0806C592.899 91.5745 592.814 90.2033 592.646 88.967C592.488 87.7195 592.247 86.6012 591.921 85.6121C591.595 84.6118 591.19 83.7408 590.707 82.999C590.235 82.246 589.678 81.6278 589.038 81.1445C588.408 80.65 587.7 80.2791 586.914 80.0318C586.127 79.7846 585.267 79.6609 584.334 79.6609C583.401 79.6609 582.542 79.7846 581.755 80.0318C580.968 80.2791 580.254 80.65 579.614 81.1445C578.984 81.6278 578.428 82.246 577.945 82.999C577.473 83.7408 577.074 84.6118 576.748 85.6121C576.422 86.6012 576.175 87.7195 576.006 88.967C575.849 90.2033 575.77 91.5745 575.77 93.0806Z" fill="#9A77F3"/>
<path d="M557.527 117.189L517.049 117.189L517.049 109.198C517.049 107.175 517.296 105.393 517.791 103.853C518.285 102.314 518.948 100.965 519.78 99.8072C520.612 98.6496 521.573 97.6549 522.663 96.8232C523.764 95.9915 524.922 95.2722 526.136 94.6653C527.361 94.0584 528.597 93.5414 529.845 93.1143C531.103 92.6759 532.312 92.277 533.469 91.9173L534.818 91.479C535.661 91.2205 536.47 90.962 537.246 90.7035C538.032 90.445 538.769 90.1752 539.454 89.8942C540.151 89.602 540.78 89.2873 541.342 88.9502C541.916 88.613 542.41 88.2308 542.826 87.8038C543.242 87.3767 543.562 86.9046 543.787 86.3876C544.012 85.8594 544.124 85.2637 544.124 84.6006C544.124 83.87 543.972 83.2013 543.669 82.5944C543.365 81.9762 542.933 81.4536 542.371 81.0265C541.809 80.5994 541.123 80.2679 540.314 80.0318C539.505 79.7846 538.594 79.6609 537.583 79.6609C536.448 79.6609 535.453 79.8183 534.599 80.133C533.756 80.4365 533.053 80.8973 532.491 81.5154C531.941 82.1223 531.525 82.8922 531.244 83.8251C530.963 84.7467 530.822 85.8313 530.822 87.0788L530.822 88.0735L517.268 88.0735L517.268 86.9608C517.268 84.0386 517.751 81.4086 518.718 79.0709C519.696 76.7219 521.084 74.7269 522.882 73.086C524.691 71.4338 526.883 70.1694 529.457 69.2928C532.031 68.4049 534.925 67.9609 538.139 67.9609C541.174 67.9609 543.899 68.3543 546.316 69.1411C548.743 69.9278 550.795 71.0573 552.469 72.5297C554.155 74.002 555.442 75.7834 556.33 77.8739C557.229 79.9644 557.679 82.319 557.679 84.9378C557.679 86.9496 557.426 88.7085 556.92 90.2146C556.414 91.7206 555.734 93.0244 554.88 94.1258C554.037 95.2272 553.059 96.1601 551.947 96.9244C550.845 97.6886 549.687 98.3349 548.474 98.8631C547.271 99.3801 546.052 99.8128 544.815 100.161C543.59 100.51 542.438 100.819 541.359 101.088L539.066 101.679C538.392 101.847 537.718 102.021 537.043 102.201C536.369 102.381 535.723 102.583 535.105 102.808C534.486 103.033 533.908 103.286 533.368 103.567C532.84 103.848 532.379 104.174 531.986 104.545C531.592 104.915 531.283 105.337 531.058 105.809C530.834 106.27 530.721 106.804 530.721 107.411L530.721 108.962L528.732 105.758L557.527 105.758L557.527 117.189Z" fill="#9A77F3"/>
<path d="M681.595 270.324V323.047H644.299V219.341H681.595V252.264L681.501 252.452C682.379 246.432 683.759 241.18 685.64 236.696C687.553 232.213 689.951 228.481 692.836 225.503C695.721 222.524 699.091 220.282 702.948 218.777C706.805 217.272 711.163 216.52 716.023 216.52C721.29 216.52 725.868 217.413 729.756 219.2C733.644 220.988 736.874 223.715 739.445 227.384C742.016 231.021 743.928 235.599 745.183 241.117C746.468 246.604 747.111 253.079 747.111 260.542V323.047H709.815V269.948C709.815 266.311 709.532 263.144 708.968 260.448C708.404 257.72 707.557 255.462 706.428 253.675C705.299 251.888 703.873 250.555 702.148 249.677C700.424 248.799 698.401 248.36 696.081 248.36C694.513 248.36 693.055 248.564 691.707 248.972C690.39 249.379 689.183 249.991 688.086 250.806C687.02 251.621 686.079 252.64 685.264 253.863C684.449 255.086 683.774 256.512 683.241 258.143C682.708 259.773 682.301 261.608 682.019 263.646C681.736 265.652 681.595 267.879 681.595 270.324Z" fill="#9A77F3"/>
<path d="M531.998 271.171C531.998 265.621 532.609 260.416 533.832 255.556C535.055 250.665 536.811 246.197 539.1 242.152C541.389 238.107 544.148 234.501 547.378 231.335C550.607 228.136 554.244 225.44 558.289 223.245C562.334 221.05 566.723 219.388 571.458 218.26C576.193 217.1 581.194 216.52 586.461 216.52C591.729 216.52 596.73 217.1 601.464 218.26C606.199 219.388 610.589 221.05 614.633 223.245C618.678 225.44 622.315 228.136 625.545 231.335C628.774 234.501 631.534 238.107 633.823 242.152C636.111 246.197 637.867 250.649 639.09 255.509C640.313 260.369 640.924 265.59 640.924 271.171C640.924 276.721 640.313 281.941 639.09 286.833C637.867 291.693 636.111 296.161 633.823 300.237C631.534 304.281 628.774 307.887 625.545 311.054C622.315 314.221 618.678 316.917 614.633 319.144C610.589 321.338 606.199 323 601.464 324.129C596.73 325.289 591.729 325.869 586.461 325.869C581.194 325.869 576.193 325.289 571.458 324.129C566.723 323 562.334 321.338 558.289 319.144C554.244 316.917 550.607 314.221 547.378 311.054C544.148 307.887 541.389 304.281 539.1 300.237C536.811 296.161 535.055 291.693 533.832 286.833C532.609 281.941 531.998 276.721 531.998 271.171ZM569.671 271.171C569.671 274.965 570.031 278.288 570.752 281.142C571.474 283.995 572.54 286.378 573.951 288.291C575.393 290.203 577.149 291.645 579.218 292.617C581.319 293.558 583.733 294.028 586.461 294.028C589.189 294.028 591.603 293.558 593.704 292.617C595.805 291.645 597.561 290.203 598.972 288.291C600.383 286.378 601.449 283.995 602.17 281.142C602.891 278.288 603.252 274.965 603.252 271.171C603.252 267.377 602.891 264.053 602.17 261.2C601.449 258.347 600.383 255.979 598.972 254.098C597.561 252.186 595.805 250.759 593.704 249.818C591.603 248.846 589.189 248.36 586.461 248.36C583.733 248.36 581.319 248.846 579.218 249.818C577.149 250.759 575.393 252.186 573.951 254.098C572.54 255.979 571.474 258.347 570.752 261.2C570.031 264.053 569.671 267.377 569.671 271.171Z" fill="#9A77F3"/>
<path d="M463.699 270.324V323.047H426.402V183.832H463.699V252.264L463.605 252.452C464.483 246.432 465.862 241.18 467.744 236.696C469.656 232.212 472.055 228.481 474.939 225.502C477.824 222.524 481.195 220.282 485.051 218.777C488.908 217.272 493.266 216.519 498.126 216.519C503.394 216.519 507.972 217.413 511.86 219.2C515.748 220.987 518.977 223.715 521.548 227.384C524.119 231.021 526.032 235.599 527.286 241.117C528.572 246.604 529.215 253.079 529.215 260.541V323.047H491.918V269.948C491.918 266.311 491.636 263.144 491.071 260.447C490.507 257.719 489.661 255.462 488.532 253.675C487.403 251.887 485.976 250.555 484.252 249.677C482.527 248.799 480.505 248.36 478.185 248.36C476.617 248.36 475.159 248.564 473.811 248.971C472.494 249.379 471.287 249.991 470.189 250.806C469.123 251.621 468.183 252.64 467.367 253.863C466.552 255.086 465.878 256.512 465.345 258.143C464.812 259.773 464.404 261.607 464.122 263.645C463.84 265.652 463.699 267.878 463.699 270.324Z" fill="#9A77F3"/>
<path d="M422.772 322.248C417.943 323.471 413.46 324.38 409.321 324.976C405.213 325.571 401.341 325.869 397.704 325.869C391.496 325.869 386.04 324.976 381.337 323.188C376.634 321.401 372.714 318.736 369.579 315.193C366.443 311.618 364.092 307.166 362.524 301.836C360.956 296.474 360.172 290.25 360.172 283.164V195.449H397.469V283.211C397.469 285.719 397.688 287.883 398.127 289.702C398.566 291.489 399.24 292.962 400.15 294.123C401.09 295.251 402.282 296.098 403.724 296.662C405.166 297.195 406.907 297.462 408.945 297.462C410.638 297.462 412.582 297.289 414.777 296.944C417.003 296.568 419.668 296.004 422.772 295.251V322.248ZM422.772 248.125H348.32V219.342H422.772V248.125Z" fill="#9A77F3"/>
<path d="M261.791 323.047H220.262L262.873 188.535H316.583L358.536 323.047H316.16L286.953 201.61H291.656L261.791 323.047ZM250.739 297.603V266.938H333.327V297.603H250.739Z" fill="#9A77F3"/>
<path d="M421.417 121.51C421.417 125.241 421.856 128.565 422.734 131.481C423.643 134.397 424.96 136.858 426.684 138.865C428.409 140.872 430.51 142.408 432.987 143.474C435.495 144.509 438.364 145.026 441.594 145.026C443.632 145.026 445.513 144.807 447.237 144.368C448.962 143.897 450.53 143.208 451.941 142.298C453.352 141.389 454.59 140.26 455.656 138.912C456.754 137.564 457.71 135.98 458.525 134.162H492.435C490.93 140.15 488.594 145.544 485.428 150.341C482.292 155.138 478.482 159.198 473.999 162.522C469.515 165.846 464.436 168.401 458.76 170.188C453.085 171.976 446.987 172.869 440.465 172.869C432.469 172.869 425.164 171.552 418.548 168.918C411.932 166.253 406.257 162.522 401.522 157.725C396.819 152.896 393.166 147.127 390.564 140.417C387.961 133.707 386.66 126.276 386.66 118.124C386.66 110.003 387.946 102.588 390.517 95.8776C393.088 89.1677 396.709 83.4298 401.381 78.6639C406.053 73.8666 411.666 70.1511 418.219 67.5173C424.772 64.8521 432.015 63.5195 439.948 63.5195C447.849 63.5195 455.045 64.8364 461.535 67.4702C468.057 70.104 473.623 73.8196 478.232 78.6168C482.872 83.3828 486.462 89.1207 489.002 95.8306C491.573 102.54 492.859 109.987 492.859 118.171C492.859 119.456 492.812 120.789 492.718 122.169C492.655 123.517 492.561 124.818 492.435 126.072H406.508V107.73H471.741L458.901 125.649C459.027 124.238 459.105 122.905 459.137 121.651C459.199 120.366 459.231 119.143 459.231 117.983C459.231 113.342 458.839 109.313 458.055 105.895C457.271 102.478 456.08 99.6402 454.48 97.3826C452.913 95.0937 450.937 93.4006 448.554 92.3032C446.171 91.1744 443.381 90.61 440.183 90.61C437.11 90.61 434.398 91.1274 432.046 92.1621C429.695 93.1968 427.735 94.7175 426.167 96.7242C424.599 98.6995 423.408 101.177 422.593 104.155C421.809 107.134 421.417 110.583 421.417 114.502V121.51Z" fill="#9A77F3"/>
<path d="M399.496 66.3413L360.365 118.359V117.465L402.506 170.047H357.872L329.606 132.751L329.935 132.609V170.047H292.639V30.832H329.935V108.2L329.606 108.059L357.449 66.3413H399.496Z" fill="#9A77F3"/>
<path d="M253.667 66.3408H292.328L256.113 169.341C253.761 176.145 250.955 182.008 247.694 186.931C244.465 191.885 240.702 195.946 236.406 199.112C232.111 202.311 227.235 204.662 221.78 206.167C216.355 207.704 210.257 208.472 203.484 208.472C200.317 208.472 196.978 208.299 193.466 207.954C189.986 207.61 186.302 207.092 182.414 206.402V177.525C185.079 177.901 187.509 178.183 189.704 178.371C191.898 178.591 193.952 178.701 195.865 178.701C198.687 178.701 201.242 178.481 203.531 178.042C205.82 177.634 207.921 176.96 209.833 176.02C211.746 175.11 213.486 173.935 215.054 172.492C216.622 171.05 218.095 169.31 219.475 167.272L221.074 164.262L216.935 176.255L179.027 66.3408H218.534L239.228 156.972H232.644L253.667 66.3408Z" fill="#9A77F3"/>
<path d="M60.1465 170.047V35.5352H113.998C120.583 35.5352 126.807 36.2406 132.67 37.6516C138.565 39.0626 143.989 41.1163 148.943 43.8128C153.928 46.5093 158.397 49.8172 162.347 53.7366C166.298 57.6559 169.653 62.1083 172.412 67.0937C175.203 72.0791 177.335 77.5662 178.808 83.5549C180.282 89.5123 181.019 95.9244 181.019 102.791C181.019 109.658 180.282 116.085 178.808 122.074C177.335 128.032 175.203 133.503 172.412 138.488C169.653 143.474 166.298 147.926 162.347 151.846C158.397 155.765 153.928 159.073 148.943 161.769C143.989 164.466 138.565 166.52 132.67 167.93C126.807 169.341 120.583 170.047 113.998 170.047H60.1465ZM99.7475 140.793L96.3612 137.407H112.634C115.738 137.407 118.592 137.093 121.194 136.466C123.797 135.839 126.133 134.898 128.202 133.644C130.303 132.359 132.137 130.759 133.705 128.847C135.304 126.903 136.636 124.645 137.702 122.074C138.768 119.503 139.568 116.618 140.101 113.42C140.665 110.222 140.948 106.679 140.948 102.791C140.948 98.9031 140.665 95.36 140.101 92.1618C139.568 88.9636 138.768 86.079 137.702 83.5079C136.636 80.9368 135.304 78.6949 133.705 76.7823C132.137 74.8383 130.303 73.2392 128.202 71.985C126.133 70.6995 123.797 69.7432 121.194 69.1161C118.592 68.489 115.738 68.1754 112.634 68.1754H96.3612L99.7475 64.7891V140.793Z" fill="#9A77F3"/>
<path d="M66.4438 0.174805V15.4477H59.1998C55.2961 15.4477 51.9557 15.9708 49.1789 17.0172C46.402 18.0233 44.0879 19.613 42.2367 21.7862C40.4257 23.9192 39.0775 26.6357 38.1921 29.9357C37.3469 33.2358 36.9244 37.1596 36.9244 41.7073V76.2976C36.9244 79.2354 36.6829 81.9721 36.2 84.5075C35.717 87.0026 35.0128 89.2966 34.0871 91.3893C33.2017 93.4418 32.095 95.2729 30.7669 96.8827C29.4389 98.4925 27.8894 99.8608 26.1187 100.988C24.3882 102.074 22.4765 102.94 20.3838 103.583C18.2911 104.187 16.0173 104.509 13.5623 104.549L13.4416 104.187C15.977 104.227 18.3112 104.549 20.4442 105.153C22.5772 105.716 24.5089 106.541 26.2394 107.628C28.0102 108.715 29.5596 110.043 30.8877 111.612C32.2157 113.182 33.3225 115.013 34.2079 117.106C35.0932 119.158 35.7573 121.452 36.2 123.987C36.6829 126.483 36.9244 129.219 36.9244 132.197V166.848C36.9244 171.355 37.3671 175.259 38.2524 178.559C39.1378 181.859 40.486 184.576 42.297 186.709C44.1483 188.882 46.4624 190.492 49.2392 191.538C52.0564 192.625 55.3765 193.168 59.1998 193.168H66.4438V208.441H59.1998C52.5192 208.441 46.7441 207.616 41.8745 205.966C37.0049 204.316 32.9603 201.78 29.7407 198.36C26.5614 194.939 24.1869 190.592 22.6174 185.32C21.0881 180.048 20.3234 173.79 20.3234 166.546V132.318C20.3234 128.817 20.0216 125.819 19.4179 123.323C18.8143 120.828 17.8685 118.796 16.5807 117.226C15.3331 115.617 13.7434 114.45 11.8117 113.725C9.87996 112.96 7.56589 112.578 4.8695 112.578H0.402344V96.0376H4.8695C7.56589 96.0376 9.90008 95.6754 11.8721 94.951C13.8441 94.2266 15.4538 93.0796 16.7014 91.51C17.949 89.9003 18.8545 87.8478 19.4179 85.3526C20.0216 82.8574 20.3234 79.8391 20.3234 76.2976V42.0695C20.3234 34.7852 21.0881 28.507 22.6174 23.235C24.1467 17.9227 26.501 13.5763 29.6803 10.1957C32.8597 6.77492 36.8841 4.25963 41.7537 2.64985C46.6233 0.999819 52.4387 0.174805 59.1998 0.174805H66.4438Z" fill="url(#paint0_linear_72_10842)"/>
<path d="M736.42 377.762V362.489H743.664C747.568 362.489 750.908 361.966 753.685 360.92C756.462 359.914 758.756 358.324 760.567 356.151C762.418 354.018 763.766 351.301 764.611 348.001C765.497 344.701 765.939 340.777 765.939 336.23V301.639C765.939 298.702 766.181 295.985 766.664 293.49C767.147 290.954 767.831 288.661 768.716 286.608C769.642 284.515 770.769 282.664 772.097 281.054C773.425 279.444 774.954 278.096 776.685 277.01C778.455 275.883 780.387 275.018 782.48 274.414C784.573 273.77 786.846 273.428 789.301 273.388L789.422 273.75C786.887 273.71 784.553 273.408 782.42 272.844C780.287 272.241 778.335 271.396 776.564 270.309C774.833 269.222 773.304 267.894 771.976 266.325C770.648 264.755 769.541 262.944 768.656 260.892C767.771 258.799 767.086 256.505 766.603 254.01C766.161 251.474 765.939 248.718 765.939 245.74V211.089C765.939 206.582 765.497 202.678 764.611 199.378C763.726 196.078 762.358 193.361 760.506 191.228C758.695 189.055 756.381 187.445 753.564 186.399C750.787 185.312 747.487 184.769 743.664 184.769H736.42V169.496H743.664C750.345 169.496 756.12 170.321 760.989 171.971C765.859 173.621 769.883 176.157 773.063 179.577C776.282 182.998 778.657 187.345 780.186 192.617C781.756 197.889 782.54 204.147 782.54 211.391V245.619C782.54 249.12 782.842 252.118 783.446 254.614C784.049 257.109 784.975 259.161 786.223 260.771C787.511 262.341 789.12 263.508 791.052 264.272C792.984 264.997 795.298 265.359 797.994 265.359H802.461V281.899H797.994C795.298 281.899 792.964 282.262 790.992 282.986C789.02 283.71 787.41 284.878 786.162 286.487C784.915 288.057 783.989 290.089 783.385 292.584C782.822 295.08 782.54 298.098 782.54 301.639V335.867C782.54 343.152 781.776 349.43 780.246 354.702C778.717 360.014 776.363 364.361 773.183 367.741C770.004 371.162 765.98 373.677 761.11 375.287C756.24 376.937 750.425 377.762 743.664 377.762H736.42Z" fill="url(#paint1_linear_72_10842)"/>
<defs>
<linearGradient id="paint0_linear_72_10842" x1="45.6823" y1="-26.9432" x2="6.15645" y2="203.735" gradientUnits="userSpaceOnUse">
<stop stop-color="#EC7A75"/>
<stop offset="0.182292" stop-color="#EE925B"/>
<stop offset="0.390625" stop-color="#F7D580"/>
<stop offset="0.614583" stop-color="#69CF97"/>
<stop offset="0.817708" stop-color="#6883F4"/>
<stop offset="1" stop-color="#724CD3"/>
</linearGradient>
<linearGradient id="paint1_linear_72_10842" x1="781.7" y1="142.378" x2="742.174" y2="373.056" gradientUnits="userSpaceOnUse">
<stop stop-color="#EC7A75"/>
<stop offset="0.182292" stop-color="#EE925B"/>
<stop offset="0.390625" stop-color="#F7D580"/>
<stop offset="0.614583" stop-color="#69CF97"/>
<stop offset="0.817708" stop-color="#6883F4"/>
<stop offset="1" stop-color="#724CD3"/>
</linearGradient>
</defs>
</svg>
